<mxfile host="app.diagrams.net" modified="2022-03-02T19:59:40.233Z" agent="5.0 (Windows NT 10.0; Win64; x64) AppleWebKit/537.36 (KHTML, like Gecko) Chrome/99.0.4844.51 Safari/537.36" etag="Vhy6yMAUcat3Zth45ia9" version="16.6.3" type="github">
  <diagram id="qEQCgVEGYSxdwCo334IR" name="Page-1">
    <mxGraphModel dx="1422" dy="754" grid="1" gridSize="10" guides="1" tooltips="1" connect="1" arrows="1" fold="1" page="1" pageScale="1" pageWidth="827" pageHeight="1169" math="0" shadow="0">
      <root>
        <mxCell id="0" />
        <mxCell id="1" parent="0" />
        <mxCell id="rNH33JsrCz6pZrI6Srnp-11" value="" style="edgeStyle=orthogonalEdgeStyle;rounded=0;orthogonalLoop=1;jettySize=auto;html=1;" edge="1" parent="1" source="rNH33JsrCz6pZrI6Srnp-2" target="rNH33JsrCz6pZrI6Srnp-10">
          <mxGeometry relative="1" as="geometry" />
        </mxCell>
        <mxCell id="rNH33JsrCz6pZrI6Srnp-2" value="Get total unsettled AP" style="rounded=0;whiteSpace=wrap;html=1;" vertex="1" parent="1">
          <mxGeometry x="320" y="330" width="120" height="60" as="geometry" />
        </mxCell>
        <mxCell id="rNH33JsrCz6pZrI6Srnp-5" value="" style="edgeStyle=orthogonalEdgeStyle;rounded=0;orthogonalLoop=1;jettySize=auto;html=1;" edge="1" parent="1" source="rNH33JsrCz6pZrI6Srnp-3" target="rNH33JsrCz6pZrI6Srnp-4">
          <mxGeometry relative="1" as="geometry" />
        </mxCell>
        <mxCell id="rNH33JsrCz6pZrI6Srnp-3" value="Calculate Delta" style="rounded=0;whiteSpace=wrap;html=1;" vertex="1" parent="1">
          <mxGeometry x="320" y="40" width="120" height="60" as="geometry" />
        </mxCell>
        <mxCell id="rNH33JsrCz6pZrI6Srnp-7" value="No" style="edgeStyle=orthogonalEdgeStyle;rounded=0;orthogonalLoop=1;jettySize=auto;html=1;" edge="1" parent="1" source="rNH33JsrCz6pZrI6Srnp-4" target="rNH33JsrCz6pZrI6Srnp-6">
          <mxGeometry relative="1" as="geometry" />
        </mxCell>
        <mxCell id="rNH33JsrCz6pZrI6Srnp-9" value="Yes" style="edgeStyle=orthogonalEdgeStyle;rounded=0;orthogonalLoop=1;jettySize=auto;html=1;" edge="1" parent="1" source="rNH33JsrCz6pZrI6Srnp-4">
          <mxGeometry relative="1" as="geometry">
            <mxPoint x="380" y="330" as="targetPoint" />
          </mxGeometry>
        </mxCell>
        <mxCell id="rNH33JsrCz6pZrI6Srnp-4" value="Is &amp;lt; 0?" style="rhombus;whiteSpace=wrap;html=1;rounded=0;" vertex="1" parent="1">
          <mxGeometry x="340" y="170" width="80" height="80" as="geometry" />
        </mxCell>
        <mxCell id="rNH33JsrCz6pZrI6Srnp-6" value="Top up" style="whiteSpace=wrap;html=1;rounded=0;dashed=1;" vertex="1" parent="1">
          <mxGeometry x="480" y="180" width="120" height="60" as="geometry" />
        </mxCell>
        <mxCell id="rNH33JsrCz6pZrI6Srnp-13" value="Yes" style="edgeStyle=orthogonalEdgeStyle;rounded=0;orthogonalLoop=1;jettySize=auto;html=1;fontSize=9;" edge="1" parent="1" source="rNH33JsrCz6pZrI6Srnp-10" target="rNH33JsrCz6pZrI6Srnp-12">
          <mxGeometry relative="1" as="geometry" />
        </mxCell>
        <mxCell id="rNH33JsrCz6pZrI6Srnp-21" value="" style="edgeStyle=orthogonalEdgeStyle;rounded=0;orthogonalLoop=1;jettySize=auto;html=1;fontSize=12;" edge="1" parent="1" source="rNH33JsrCz6pZrI6Srnp-10" target="rNH33JsrCz6pZrI6Srnp-20">
          <mxGeometry relative="1" as="geometry" />
        </mxCell>
        <mxCell id="rNH33JsrCz6pZrI6Srnp-10" value="Is Abs(Delta) &lt;br&gt;&amp;lt;= unsettled?" style="rhombus;whiteSpace=wrap;html=1;rounded=0;fontSize=9;" vertex="1" parent="1">
          <mxGeometry x="340" y="460" width="80" height="80" as="geometry" />
        </mxCell>
        <mxCell id="rNH33JsrCz6pZrI6Srnp-15" value="" style="edgeStyle=orthogonalEdgeStyle;rounded=0;orthogonalLoop=1;jettySize=auto;html=1;fontSize=12;" edge="1" parent="1" source="rNH33JsrCz6pZrI6Srnp-12" target="rNH33JsrCz6pZrI6Srnp-14">
          <mxGeometry relative="1" as="geometry" />
        </mxCell>
        <mxCell id="rNH33JsrCz6pZrI6Srnp-12" value="Get remaining payments" style="whiteSpace=wrap;html=1;fontSize=12;rounded=0;" vertex="1" parent="1">
          <mxGeometry x="320" y="630" width="120" height="60" as="geometry" />
        </mxCell>
        <mxCell id="rNH33JsrCz6pZrI6Srnp-17" value="" style="edgeStyle=orthogonalEdgeStyle;rounded=0;orthogonalLoop=1;jettySize=auto;html=1;fontSize=12;" edge="1" parent="1" source="rNH33JsrCz6pZrI6Srnp-14" target="rNH33JsrCz6pZrI6Srnp-16">
          <mxGeometry relative="1" as="geometry" />
        </mxCell>
        <mxCell id="rNH33JsrCz6pZrI6Srnp-14" value="Change schedule to only remainig" style="whiteSpace=wrap;html=1;fontSize=12;rounded=0;" vertex="1" parent="1">
          <mxGeometry x="320" y="770" width="120" height="60" as="geometry" />
        </mxCell>
        <mxCell id="rNH33JsrCz6pZrI6Srnp-19" value="" style="edgeStyle=orthogonalEdgeStyle;rounded=0;orthogonalLoop=1;jettySize=auto;html=1;fontSize=12;" edge="1" parent="1" source="rNH33JsrCz6pZrI6Srnp-16" target="rNH33JsrCz6pZrI6Srnp-18">
          <mxGeometry relative="1" as="geometry" />
        </mxCell>
        <mxCell id="rNH33JsrCz6pZrI6Srnp-16" value="Change due date to first remaining payment" style="whiteSpace=wrap;html=1;fontSize=12;rounded=0;" vertex="1" parent="1">
          <mxGeometry x="320" y="910" width="120" height="60" as="geometry" />
        </mxCell>
        <mxCell id="rNH33JsrCz6pZrI6Srnp-18" value="Route to AP" style="whiteSpace=wrap;html=1;fontSize=12;rounded=0;" vertex="1" parent="1">
          <mxGeometry x="320" y="1050" width="120" height="60" as="geometry" />
        </mxCell>
        <mxCell id="rNH33JsrCz6pZrI6Srnp-20" value="As is?" style="whiteSpace=wrap;html=1;fontSize=9;rounded=0;dashed=1;" vertex="1" parent="1">
          <mxGeometry x="480" y="470" width="120" height="60" as="geometry" />
        </mxCell>
      </root>
    </mxGraphModel>
  </diagram>
</mxfile>
